<?xml version="1.0" encoding="utf-8"?>
<!-- Generator: Adobe Illustrator 22.1.0, SVG Export Plug-In . SVG Version: 6.00 Build 0)  -->
<svg version="1.1" id="Layer_1" xmlns="http://www.w3.org/2000/svg" xmlns:xlink="http://www.w3.org/1999/xlink" x="0px" y="0px"
	 width="587.9px" height="244.9px" viewBox="0 0 587.9 244.9" style="enable-background:new 0 0 587.9 244.9;" xml:space="preserve"
	>
<style type="text/css">
	.st0{fill:#EAE6DE;}
	.st1{fill:#010202;}
</style>
<title>partner</title>
<rect class="st0" width="587.9" height="244.9"/>
<g>
	<polygon class="st1" points="54,91.3 54,153.6 70.7,153.6 70.7,126.6 106.5,126.6 106.5,153.6 123.2,153.6 123.2,91.3 106.5,91.3 
		106.5,113.9 70.7,113.9 70.7,91.3 	"/>
	<polygon class="st1" points="309.7,91.3 309.7,104.5 333.7,104.5 333.7,153.6 350.4,153.6 350.4,104.5 374.5,104.5 374.5,91.3 	"/>
	<polygon class="st1" points="447.1,91.3 447.1,104.5 402.9,104.5 402.9,113.9 440.2,113.9 440.2,126.6 402.9,126.6 402.9,140.4 
		447.1,140.4 447.1,153.6 386.2,153.6 386.2,91.3 	"/>
	<path class="st1" d="M10.3,10.3h567.3v224.3H10.3V10.3z M0,244.9h587.9V0H0V244.9z"/>
	<path class="st1" d="M563.4,220.4H24.5V24.5h538.9V220.4z M21.1,223.8h545.7V21.1H21.1V223.8z"/>
	<path class="st1" d="M508.9,117.3H479v-13.7h29.9C517.3,103.6,517.3,117.3,508.9,117.3 M516.3,129.6c10.3-1.5,15.2-9.3,15.2-19.6
		s-8.8-18.2-19.1-18.2h-50.1v62.3H479v-23.6h17.2l18.6,23.6h21.1L516.3,129.6z"/>
	<polygon class="st1" points="229.2,91.3 246.9,91.3 281.2,134 281.2,91.3 298.4,91.3 298.4,153.6 278.8,153.6 245.9,112.9 
		245.9,153.6 229.2,153.6 	"/>
	<path class="st1" d="M176.2,140.4c10.8,0,17.7-3.9,17.7-12.8V91.3h16.7v39.3c0,16.2-16.2,24.5-35.3,24.5
		c-18.6,0-34.4-8.3-34.4-24.5V91.3h16.7v36.3C158,136.4,165.4,140.4,176.2,140.4"/>
</g>
</svg>
